<mxfile host="app.diagrams.net" modified="2021-06-24T06:28:50.134Z" agent="5.0 (Windows NT 10.0; Win64; x64) AppleWebKit/537.36 (KHTML, like Gecko) Chrome/91.0.4472.114 Safari/537.36" etag="CA68Cf-SIIoGbjCUaoNt" version="14.8.0" type="github">
  <diagram id="YNfQ12_H4-abK58z41uk" name="Page-1">
    <mxGraphModel dx="1422" dy="762" grid="1" gridSize="10" guides="1" tooltips="1" connect="1" arrows="1" fold="1" page="1" pageScale="1" pageWidth="827" pageHeight="1169" math="0" shadow="0">
      <root>
        <mxCell id="0" />
        <mxCell id="1" parent="0" />
        <mxCell id="9xCUj37M5p90MkXv-arF-1" value="VOP" style="rounded=0;whiteSpace=wrap;html=1;" vertex="1" parent="1">
          <mxGeometry x="120" y="330" width="120" height="40" as="geometry" />
        </mxCell>
        <mxCell id="9xCUj37M5p90MkXv-arF-2" value="分流和分区配置" style="rounded=0;whiteSpace=wrap;html=1;" vertex="1" parent="1">
          <mxGeometry x="280" y="270" width="120" height="40" as="geometry" />
        </mxCell>
        <mxCell id="9xCUj37M5p90MkXv-arF-3" value="资源管理" style="rounded=0;whiteSpace=wrap;html=1;" vertex="1" parent="1">
          <mxGeometry x="260" y="565" width="120" height="40" as="geometry" />
        </mxCell>
        <mxCell id="9xCUj37M5p90MkXv-arF-4" value="分流配置" style="rounded=0;whiteSpace=wrap;html=1;" vertex="1" parent="1">
          <mxGeometry x="440" y="210" width="120" height="40" as="geometry" />
        </mxCell>
        <mxCell id="9xCUj37M5p90MkXv-arF-5" value="cn2分配-配置文件" style="rounded=0;whiteSpace=wrap;html=1;" vertex="1" parent="1">
          <mxGeometry x="440" y="270" width="120" height="40" as="geometry" />
        </mxCell>
        <mxCell id="9xCUj37M5p90MkXv-arF-6" value="cn2分配策略" style="rounded=0;whiteSpace=wrap;html=1;" vertex="1" parent="1">
          <mxGeometry x="430" y="340" width="120" height="40" as="geometry" />
        </mxCell>
        <mxCell id="9xCUj37M5p90MkXv-arF-7" value="分区配置文件" style="rounded=0;whiteSpace=wrap;html=1;" vertex="1" parent="1">
          <mxGeometry x="440" y="430" width="120" height="40" as="geometry" />
        </mxCell>
        <mxCell id="9xCUj37M5p90MkXv-arF-8" value="分区配置策略" style="rounded=0;whiteSpace=wrap;html=1;" vertex="1" parent="1">
          <mxGeometry x="440" y="510" width="120" height="40" as="geometry" />
        </mxCell>
        <mxCell id="9xCUj37M5p90MkXv-arF-9" value="运维树" style="rounded=0;whiteSpace=wrap;html=1;" vertex="1" parent="1">
          <mxGeometry x="440" y="570" width="120" height="40" as="geometry" />
        </mxCell>
        <mxCell id="9xCUj37M5p90MkXv-arF-10" value="节点在线数" style="rounded=0;whiteSpace=wrap;html=1;" vertex="1" parent="1">
          <mxGeometry x="440" y="630" width="120" height="40" as="geometry" />
        </mxCell>
        <mxCell id="9xCUj37M5p90MkXv-arF-11" value="节点资源管理" style="rounded=0;whiteSpace=wrap;html=1;" vertex="1" parent="1">
          <mxGeometry x="430" y="700" width="120" height="40" as="geometry" />
        </mxCell>
        <mxCell id="9xCUj37M5p90MkXv-arF-12" value="节点黑名单" style="rounded=0;whiteSpace=wrap;html=1;" vertex="1" parent="1">
          <mxGeometry x="440" y="790" width="120" height="40" as="geometry" />
        </mxCell>
      </root>
    </mxGraphModel>
  </diagram>
</mxfile>
